<svg width="30" height="30" className='bat' viewBox="0 0 40 40" fill="none" xmlns="http://www.w3.org/2000/svg">
<path d="M19.9999 37.4168C10.3927 37.4168 2.58325 29.6074 2.58325 20.0002C2.58325 10.393 10.3927 2.5835 19.9999 2.5835C29.6071 2.5835 37.4166 10.393 37.4166 20.0002C37.4166 29.6074 29.6071 37.4168 19.9999 37.4168ZM19.9999 4.0835C11.2238 4.0835 4.08325 11.224 4.08325 20.0002C4.08325 28.7763 11.2238 35.9168 19.9999 35.9168C28.7761 35.9168 35.9166 28.7763 35.9166 20.0002C35.9166 11.224 28.7761 4.0835 19.9999 4.0835Z" fill="#292D32" stroke="#120B48"/>
<path d="M15.8132 25.2465L15.8071 25.2526L15.8012 25.2589C15.6777 25.3913 15.4855 25.4668 15.2834 25.4668C15.0922 25.4668 14.9049 25.3978 14.7537 25.2465C14.4656 24.9585 14.4656 24.4751 14.7537 24.187L24.187 14.7537C24.4751 14.4656 24.9585 14.4656 25.2465 14.7537C25.5346 15.0417 25.5346 15.5251 25.2465 15.8132L15.8132 25.2465Z" fill="#292D32" stroke="#120B48"/>
<path d="M24.7168 25.4668C24.5255 25.4668 24.3383 25.3978 24.187 25.2465L14.7537 15.8132C14.4656 15.5251 14.4656 15.0417 14.7537 14.7537C15.0417 14.4656 15.5251 14.4656 15.8132 14.7537L25.2465 24.187C25.5346 24.4751 25.5346 24.9585 25.2465 25.2465C25.0953 25.3978 24.908 25.4668 24.7168 25.4668Z" fill="#292D32" stroke="#120B48"/>
</svg>
